<svg xmlns="http://www.w3.org/2000/svg" width="64" height="64" viewBox="0 0 280 120" fill="none">
  <g fill="#E31D2B">
    <path d="M136.5 10C73.5 10 18 28.5 18 58C18 87.5 73.5 106 136.5 106C199.5 106 255 87.5 255 58C255 28.5 199.5 10 136.5 10ZM136.5 99C78 99 25 82 25 58C25 34 78 17 136.5 17C195 17 248 34 248 58C248 82 195 99 136.5 99Z"/>
    
    <path d="M55 36.5L47 39L49.5 77.5L60 80.5L59.5 64.5C66.5 64 73 60.5 73.5 51C74 42 67 36 55 36.5ZM58.5 58L57 43C62.5 43 66 45.5 65.5 50.5C65 55.5 62 57.5 58.5 58Z"/>
    
    <path d="M101.5 34C88.5 34 82 44.5 82.5 57C83 69.5 90.5 82.5 103.5 82.5C116.5 82.5 123 70.5 122.5 58C122 45.5 114.5 34 101.5 34ZM102.5 75C95.5 75 90.5 66.5 90 57.5C89.5 48.5 94 41 101 41C108 41 114 49.5 114.5 58.5C115 67.5 109.5 75 102.5 75Z"/>
    
    <path d="M134.5 32.5L126.5 34L128 83L138.5 84L138 66.5C145 67 151.5 64 153 55.5C154.5 47 148.5 39.5 134.5 32.5ZM137 60L136 40C141.5 41.5 145 45.5 144.5 50.5C144 55.5 140.5 59 137 60Z"/>
    
    <path d="M159 32L166.5 83L173.5 83.5L177 54L182 83.5L189 83L200 36L189.5 34L183 66L180 33.5L171.5 33L168 64.5L166 32.5L159 32Z"/>
    
    <path d="M212.5 38L204.5 40L201.5 80L209 81.5L212.5 38Z"/>
    
    <path d="M224 40.5L216.5 42.5L212 80.5L236 74L238 65L220 69.5L224 40.5Z"/>
    
    <path d="M264 20C259.029 20 255 24.0294 255 29C255 33.9706 259.029 38 264 38C268.971 38 273 33.9706 273 29C273 24.0294 268.971 20 264 20ZM264 36.2C260.024 36.2 256.8 32.9765 256.8 29C256.8 25.0235 260.024 21.8 264 21.8C267.976 21.8 271.2 25.0235 271.2 29C271.2 32.9765 267.976 36.2 264 36.2ZM266.7 29.9H263.55V33.5H261.75V24.5H266.7C268.35 24.5 269.25 25.4 269.25 27.2C269.25 28.55 268.575 29.45 267.45 29.75L269.7 33.5H267.6L265.575 29.9H266.7ZM263.55 26.12V28.28H266.55C267.225 28.28 267.563 27.9425 267.563 27.2C267.563 26.4575 267.225 26.12 266.55 26.12H263.55Z"/>
  </g>
</svg>